<svg width="0" height="0" class="hidden">
    <symbol fill="none" xmlns="http://www.w3.org/2000/svg" viewBox="0 0 18 18" id="whatsapp">
        <path fill-rule="evenodd" clip-rule="evenodd" d="M8.57409 0.405029C10.7541 0.415029 12.8541 1.26503 14.4241 2.77503C16.0341 4.31503 16.9641 6.38503 17.0441 8.61503C17.1241 10.795 16.3641 12.925 14.9241 14.555C13.3441 16.345 11.1441 17.375 8.77409 17.445H8.53409C7.25409 17.445 5.98409 17.165 4.83409 16.605L0.374093 17.595C0.374093 17.595 0.374094 17.595 0.364094 17.595C0.324094 17.595 0.294093 17.555 0.294093 17.525L1.04409 13.015C0.404093 11.835 0.0440934 10.515 0.00409338 9.16503C-0.0659066 6.89503 0.764094 4.72503 2.32409 3.07503C3.94409 1.35503 6.15409 0.405029 8.52409 0.405029H8.56409H8.57409ZM8.52409 1.88503C8.45409 1.88503 8.38409 1.88503 8.32409 1.88503C4.44409 1.99503 1.37409 5.24503 1.48409 9.12503C1.52409 10.315 1.85409 11.475 2.44409 12.495L2.57409 12.715L2.01409 15.775L5.04409 15.065L5.27409 15.185C6.27409 15.705 7.39409 15.975 8.52409 15.975C8.59409 15.975 8.65409 15.975 8.72409 15.975C12.6041 15.865 15.6741 12.615 15.5641 8.73503C15.4541 4.92503 12.3141 1.89503 8.52409 1.89503V1.88503ZM5.57409 4.81503C5.71409 4.81503 5.86409 4.81503 5.98409 4.83503C6.13409 4.84503 6.30409 4.85503 6.45409 5.22503C6.63409 5.65503 7.01409 6.72503 7.06409 6.83503C7.11409 6.94503 7.14409 7.06503 7.06409 7.21503C6.99409 7.35503 6.95409 7.44503 6.83409 7.56503C6.72409 7.68503 6.60409 7.83503 6.50409 7.93503C6.39409 8.03503 6.28409 8.14503 6.39409 8.36503C6.51409 8.58503 6.91409 9.29503 7.54409 9.88503C8.33409 10.635 8.97409 10.885 9.22409 11.005C9.31409 11.045 9.39409 11.065 9.45409 11.065C9.54409 11.065 9.61409 11.025 9.68409 10.955C9.81409 10.815 10.2141 10.355 10.3841 10.135C10.4741 10.025 10.5541 9.98503 10.6341 9.98503C10.7041 9.98503 10.7741 10.005 10.8641 10.045C11.0541 10.125 12.0941 10.675 12.3041 10.785C12.5141 10.895 12.6541 10.955 12.7041 11.045C12.7541 11.135 12.7441 11.565 12.5441 12.055C12.3541 12.555 11.4641 13.005 11.0741 13.025C10.9541 13.025 10.8441 13.045 10.6941 13.045C10.3341 13.045 9.78409 12.955 8.51409 12.405C6.36409 11.475 5.06409 9.20503 4.96409 9.06503C4.86409 8.92503 4.12409 7.87503 4.16409 6.82503C4.19409 5.77503 4.76409 5.27503 4.96409 5.06503C5.15409 4.86503 5.37409 4.81503 5.52409 4.81503H5.54409H5.57409Z" fill="#103928"/>
    </symbol>
    <symbol fill="none" xmlns="http://www.w3.org/2000/svg" viewBox="0 0 622 368" id="mullermay-video-form">
        <path fill-rule="evenodd" clip-rule="evenodd" d="M621.5 0H0.5L0.5 368H621.5V0ZM322.743 41.457C437.484 -31.7911 587.68 41.3726 601.959 177.331V177.31C606.111 216.887 608.187 256.781 602.594 296.296C597.467 332.477 565.519 357.392 529.472 356.274C492.302 355.124 462.483 328.489 458.988 291.528C455.704 256.802 455.513 221.845 459.083 187.141C462.134 157.479 479.241 137.163 507.323 127.437C509.653 126.635 511.962 125.981 514.25 125.391L514.219 125.37C514.319 125.343 514.42 125.322 514.522 125.302C514.624 125.283 514.727 125.264 514.833 125.243C522.004 123.46 528.996 122.764 535.786 123.091C574.206 123.756 592.584 151.055 592.584 151.055C581.504 123.059 561.526 103.735 532.809 93.777C460.1 68.5769 390.103 115.802 385.336 193.67C384.205 212.246 384.175 230.891 384.144 249.534C384.131 257.962 384.117 266.389 384.001 274.809C383.535 309.618 371.173 337.287 336.842 351.2C296.939 367.371 247.079 345.177 240.723 303.11C231.327 240.959 230.692 177.943 255.193 117.87C265.722 92.0471 283.645 71.2246 306.981 51.7733C307.319 51.5359 307.658 51.2984 307.996 51.0609C307.285 51.0468 306.577 51.0349 305.869 51.0349C305.805 51.0349 305.742 51.056 305.678 51.056C295.975 50.824 288.391 51.7522 280.891 53.4611C215.184 68.4081 173.099 116.551 166.203 184.63C163.636 209.932 163.68 235.319 163.724 260.699V260.701C163.729 263.603 163.734 266.506 163.735 269.408C163.745 284.64 162.94 299.766 156.489 313.964C143.64 342.234 112.508 359.723 82.0432 355.799C47.9874 351.422 21.7808 328.394 18.3593 295.251C13.3383 246.613 12.8934 197.489 24.4078 149.684C52.0444 34.801 183.978 -21.1794 285.933 34.0731L285.817 33.9887C285.817 33.9887 288.56 35.3811 292.744 37.9444C294.45 38.9676 296.145 40.0119 297.829 41.0984C297.94 41.1828 298.052 41.2667 298.163 41.3502C298.274 41.4335 298.385 41.5164 298.496 41.5994C298.614 41.6876 298.732 41.7757 298.85 41.8642C298.955 41.9426 299.059 42.0212 299.164 42.1005C300.933 43.303 302.786 44.6321 304.704 46.0772C304.747 46.1085 304.79 46.1384 304.833 46.1678C304.905 46.2178 304.976 46.2667 305.043 46.3198C305.032 46.3093 305.361 46.5624 305.477 46.6468C305.528 46.6863 305.585 46.7319 305.63 46.769C305.67 46.8011 305.7 46.8269 305.71 46.8367C305.743 46.8604 305.777 46.8863 305.81 46.9133C305.85 46.9459 305.891 46.9802 305.931 47.0145L305.932 47.016V47.0055C307.144 47.9377 308.371 48.915 309.601 49.9357C310.272 49.4649 310.945 48.9934 311.617 48.5209C311.986 48.2622 312.354 48.0032 312.722 47.7438C315.095 46.0772 317.5 44.4422 320.053 43.0498C320.921 42.5857 321.811 42.0477 322.743 41.457Z" fill="#FFF7EC"/>
    </symbol>
</svg>

