<svg width="0" height="0" class="hidden">
    <symbol fill="none" xmlns="http://www.w3.org/2000/svg" viewBox="0 0 18 18" id="whatsapp">
        <path fill-rule="evenodd" clip-rule="evenodd" d="M8.57409 0.405029C10.7541 0.415029 12.8541 1.26503 14.4241 2.77503C16.0341 4.31503 16.9641 6.38503 17.0441 8.61503C17.1241 10.795 16.3641 12.925 14.9241 14.555C13.3441 16.345 11.1441 17.375 8.77409 17.445H8.53409C7.25409 17.445 5.98409 17.165 4.83409 16.605L0.374093 17.595C0.374093 17.595 0.374094 17.595 0.364094 17.595C0.324094 17.595 0.294093 17.555 0.294093 17.525L1.04409 13.015C0.404093 11.835 0.0440934 10.515 0.00409338 9.16503C-0.0659066 6.89503 0.764094 4.72503 2.32409 3.07503C3.94409 1.35503 6.15409 0.405029 8.52409 0.405029H8.56409H8.57409ZM8.52409 1.88503C8.45409 1.88503 8.38409 1.88503 8.32409 1.88503C4.44409 1.99503 1.37409 5.24503 1.48409 9.12503C1.52409 10.315 1.85409 11.475 2.44409 12.495L2.57409 12.715L2.01409 15.775L5.04409 15.065L5.27409 15.185C6.27409 15.705 7.39409 15.975 8.52409 15.975C8.59409 15.975 8.65409 15.975 8.72409 15.975C12.6041 15.865 15.6741 12.615 15.5641 8.73503C15.4541 4.92503 12.3141 1.89503 8.52409 1.89503V1.88503ZM5.57409 4.81503C5.71409 4.81503 5.86409 4.81503 5.98409 4.83503C6.13409 4.84503 6.30409 4.85503 6.45409 5.22503C6.63409 5.65503 7.01409 6.72503 7.06409 6.83503C7.11409 6.94503 7.14409 7.06503 7.06409 7.21503C6.99409 7.35503 6.95409 7.44503 6.83409 7.56503C6.72409 7.68503 6.60409 7.83503 6.50409 7.93503C6.39409 8.03503 6.28409 8.14503 6.39409 8.36503C6.51409 8.58503 6.91409 9.29503 7.54409 9.88503C8.33409 10.635 8.97409 10.885 9.22409 11.005C9.31409 11.045 9.39409 11.065 9.45409 11.065C9.54409 11.065 9.61409 11.025 9.68409 10.955C9.81409 10.815 10.2141 10.355 10.3841 10.135C10.4741 10.025 10.5541 9.98503 10.6341 9.98503C10.7041 9.98503 10.7741 10.005 10.8641 10.045C11.0541 10.125 12.0941 10.675 12.3041 10.785C12.5141 10.895 12.6541 10.955 12.7041 11.045C12.7541 11.135 12.7441 11.565 12.5441 12.055C12.3541 12.555 11.4641 13.005 11.0741 13.025C10.9541 13.025 10.8441 13.045 10.6941 13.045C10.3341 13.045 9.78409 12.955 8.51409 12.405C6.36409 11.475 5.06409 9.20503 4.96409 9.06503C4.86409 8.92503 4.12409 7.87503 4.16409 6.82503C4.19409 5.77503 4.76409 5.27503 4.96409 5.06503C5.15409 4.86503 5.37409 4.81503 5.52409 4.81503H5.54409H5.57409Z" fill="#103928"/>
    </symbol>
    <symbol fill="none" xmlns="http://www.w3.org/2000/svg" viewBox="0 0 622 368" id="mullermay-video-form">
        <path fill-rule="evenodd" clip-rule="evenodd" d="M621.5 0H0.5L0.5 368H621.5V0ZM322.743 41.457C437.484 -31.7911 587.68 41.3726 601.959 177.331V177.31C606.111 216.887 608.187 256.781 602.594 296.296C597.467 332.477 565.519 357.392 529.472 356.274C492.302 355.124 462.483 328.489 458.988 291.528C455.704 256.802 455.513 221.845 459.083 187.141C462.134 157.479 479.241 137.163 507.323 127.437C509.653 126.635 511.962 125.981 514.25 125.391L514.219 125.37C514.319 125.343 514.42 125.322 514.522 125.302C514.624 125.283 514.727 125.264 514.833 125.243C522.004 123.46 528.996 122.764 535.786 123.091C574.206 123.756 592.584 151.055 592.584 151.055C581.504 123.059 561.526 103.735 532.809 93.777C460.1 68.5769 390.103 115.802 385.336 193.67C384.205 212.246 384.175 230.891 384.144 249.534C384.131 257.962 384.117 266.389 384.001 274.809C383.535 309.618 371.173 337.287 336.842 351.2C296.939 367.371 247.079 345.177 240.723 303.11C231.327 240.959 230.692 177.943 255.193 117.87C265.722 92.0471 283.645 71.2246 306.981 51.7733C307.319 51.5359 307.658 51.2984 307.996 51.0609C307.285 51.0468 306.577 51.0349 305.869 51.0349C305.805 51.0349 305.742 51.056 305.678 51.056C295.975 50.824 288.391 51.7522 280.891 53.4611C215.184 68.4081 173.099 116.551 166.203 184.63C163.636 209.932 163.68 235.319 163.724 260.699V260.701C163.729 263.603 163.734 266.506 163.735 269.408C163.745 284.64 162.94 299.766 156.489 313.964C143.64 342.234 112.508 359.723 82.0432 355.799C47.9874 351.422 21.7808 328.394 18.3593 295.251C13.3383 246.613 12.8934 197.489 24.4078 149.684C52.0444 34.801 183.978 -21.1794 285.933 34.0731L285.817 33.9887C285.817 33.9887 288.56 35.3811 292.744 37.9444C294.45 38.9676 296.145 40.0119 297.829 41.0984C297.94 41.1828 298.052 41.2667 298.163 41.3502C298.274 41.4335 298.385 41.5164 298.496 41.5994C298.614 41.6876 298.732 41.7757 298.85 41.8642C298.955 41.9426 299.059 42.0212 299.164 42.1005C300.933 43.303 302.786 44.6321 304.704 46.0772C304.747 46.1085 304.79 46.1384 304.833 46.1678C304.905 46.2178 304.976 46.2667 305.043 46.3198C305.032 46.3093 305.361 46.5624 305.477 46.6468C305.528 46.6863 305.585 46.7319 305.63 46.769C305.67 46.8011 305.7 46.8269 305.71 46.8367C305.743 46.8604 305.777 46.8863 305.81 46.9133C305.85 46.9459 305.891 46.9802 305.931 47.0145L305.932 47.016V47.0055C307.144 47.9377 308.371 48.915 309.601 49.9357C310.272 49.4649 310.945 48.9934 311.617 48.5209C311.986 48.2622 312.354 48.0032 312.722 47.7438C315.095 46.0772 317.5 44.4422 320.053 43.0498C320.921 42.5857 321.811 42.0477 322.743 41.457Z" fill="#FFF7EC"/>
    </symbol>
    <symbol fill="none" xmlns="http://www.w3.org/2000/svg" viewBox="0 0 41 24" id="mullermay-logo">
        <path d="M19.9521 2.37623C19.9471 2.37187 19.942 2.36751 19.9369 2.36388C19.9354 2.36243 19.9274 2.35589 19.9209 2.35081C19.9129 2.345 19.8911 2.3283 19.8911 2.3283C19.8838 2.32249 19.8759 2.3174 19.8679 2.31159C19.7364 2.21211 19.6092 2.12061 19.4879 2.03782C19.4574 2.01458 19.4269 1.99207 19.3964 1.96883C19.2809 1.89403 19.1647 1.82214 19.0477 1.7517C18.7608 1.57523 18.5726 1.47937 18.5726 1.47937L18.5806 1.48518C11.5885 -2.31863 2.5405 1.53529 0.645186 9.44429C-0.144469 12.7354 -0.113958 16.1173 0.230381 19.4658C0.465026 21.7475 2.26227 23.3328 4.59782 23.6342C6.6871 23.9043 8.82215 22.7003 9.70333 20.7541C10.1457 19.7766 10.201 18.7352 10.2002 17.6866C10.1995 15.7397 10.1733 13.7913 10.3695 11.8502C10.8424 7.16331 13.7286 3.84895 18.2348 2.81993C18.7491 2.70229 19.2693 2.63838 19.9347 2.65436C19.9391 2.65436 19.9434 2.65291 19.9478 2.65291C20.027 2.65291 20.1061 2.65509 20.1861 2.65654L20.5631 2.89473C20.3604 2.70447 20.1534 2.53163 19.9521 2.37623Z" fill="#9566AC"/>
        <path d="M40.2536 11.3476C39.2743 1.98771 28.974 -3.04918 21.105 1.99352C21.0411 2.03419 20.9801 2.07122 20.9205 2.10318C20.7454 2.19903 20.5805 2.31159 20.4178 2.42633C20.2863 2.51929 20.1548 2.61151 20.0241 2.70374C18.4237 4.04285 17.1945 5.47636 16.4724 7.25408C14.7921 11.3898 14.8357 15.7281 15.4801 20.0068C15.916 22.9029 19.3354 24.4308 22.0719 23.3175C24.4264 22.3597 25.2741 20.4549 25.3061 18.0584C25.3315 16.1965 25.285 14.3294 25.3976 12.4725C25.7245 7.11175 30.5249 3.86057 35.5113 5.59545C37.4807 6.28098 38.8508 7.61137 39.6107 9.5387C39.6107 9.5387 38.3503 7.6593 35.7154 7.61355C35.2498 7.59104 34.7703 7.63897 34.2785 7.76169C34.264 7.7646 34.2502 7.76678 34.2364 7.77041L34.2386 7.77186C34.0816 7.81253 33.9233 7.85755 33.7635 7.91274C31.8376 8.5823 30.6644 9.98095 30.4552 12.023C30.2104 14.4122 30.2235 16.8188 30.4487 19.2094C30.6884 21.754 32.7334 23.5877 35.2825 23.6668C37.7546 23.7438 39.9456 22.0285 40.2972 19.5377C40.6808 16.8174 40.5384 14.0709 40.2536 11.3462V11.3476Z" fill="#9566AC"/>
    </symbol>
    <symbol fill="none" xmlns="http://www.w3.org/2000/svg" viewBox="0 0 161 30" id="mullermay-logo-text">
        <path fill-rule="evenodd" clip-rule="evenodd" d="M31.722 2.32927C31.722 3.85993 32.6204 4.69181 34.0513 4.69181C35.5154 4.69181 36.3806 3.82666 36.3806 2.32927C36.3806 0.831881 35.5154 0 34.018 0C32.5871 0 31.722 0.831881 31.722 2.32927ZM38.3772 2.32927C38.3772 3.85993 39.2756 4.69181 40.7065 4.69181C42.1706 4.69181 43.0358 3.82666 43.0358 2.32927C43.0358 0.831881 42.1706 0 40.6732 0C39.2423 0 38.3772 0.831881 38.3772 2.32927ZM40.5619 22.0372V21.1737C39.4346 22.7639 37.8043 23.9249 35.349 23.9249C31.123 23.9249 29.3594 20.9634 29.3594 17.2033V9.35035C29.3594 7.65331 30.2245 7.08763 31.3892 7.08763H31.9216C33.1528 7.08763 34.018 7.62003 34.018 9.35035V16.5045C34.018 18.7007 35.1494 19.9984 37.0794 19.9984C38.6431 19.9984 39.856 19.1692 40.5619 17.9479V9.75071C40.5619 7.59643 42.0876 7.07561 43.4807 7.07561C44.4094 7.07561 45.2386 7.3597 45.2386 7.45439V22.0372C45.2386 23.2682 44.343 23.6233 43.1158 23.6233H42.6183C41.4243 23.6233 40.5619 23.2445 40.5619 22.0372ZM26.1394 13.3434C26.1394 9.51672 24.409 6.88798 20.2828 6.88798C17.5875 6.88798 15.9237 8.35209 14.8256 10.2155C14.0269 8.18571 12.3299 6.88798 9.63451 6.88798C7.37935 6.88798 5.85183 8.00974 4.76256 9.52977V7.62994C4.76256 7.53593 3.93337 7.25391 3.00468 7.25391C1.61165 7.25391 0.0859375 7.77095 0.0859375 9.90961V22.1071C0.0859375 23.3057 0.948295 23.6817 2.14233 23.6817H2.63984C3.86704 23.6817 4.76256 23.3292 4.76256 22.1071V12.777C5.43184 11.6302 6.61938 10.8145 7.93744 10.8145C9.80089 10.8145 10.7326 11.9458 10.7326 14.1753V21.396C10.7326 23.1263 11.6311 23.6254 12.8623 23.6254H13.3614C14.5594 23.6254 15.4245 23.093 15.4245 21.396V12.811C16.0901 11.6463 17.288 10.8145 18.619 10.8145C20.5158 10.8145 21.4475 11.9458 21.4475 14.0754V21.396C21.4475 23.1263 22.3127 23.6254 23.5772 23.6254H24.0763C25.2742 23.6254 26.1394 23.093 26.1394 21.396V13.3434ZM64.8612 15.5063C64.8612 10.5483 68.3885 6.88798 73.28 6.88798C78.105 6.88798 81.3661 10.2488 81.3661 15.0071V15.3066C81.3328 16.1052 81.0999 16.5378 80.2347 16.5378H68.9874L69.0872 17.0702C69.5864 19.1998 71.35 20.5641 73.7459 20.5641C76.175 20.5641 77.5726 19.4993 78.3047 18.2016C78.338 18.135 80.6007 18.3347 80.6007 20.1981C80.6007 21.0965 79.9685 22.0282 78.8038 22.727C77.6059 23.4591 75.8755 23.9582 73.6128 23.9582C68.3219 23.9582 64.8612 20.6639 64.8612 15.5063ZM77.0402 13.9756C76.9071 11.6131 75.4762 10.1157 73.2467 10.1157C71.0173 10.1157 69.3535 11.7129 69.054 13.9756H77.0402ZM95.5684 9.61655C95.5684 7.95279 94.4371 6.88798 92.5736 6.88798C90.6998 6.88798 89.3931 7.88047 88.7059 9.55132V7.45439C88.7059 7.3597 87.8767 7.07561 86.948 7.07561C85.555 7.07561 84.0293 7.59643 84.0293 9.75071V22.0372C84.0293 23.1839 84.8072 23.5832 85.9083 23.6204C85.9758 23.6238 86.0456 23.6254 86.1181 23.6254H86.6172C86.715 23.6254 86.8106 23.6219 86.9037 23.6144C87.9632 23.5529 88.7059 23.1583 88.7059 22.0372V15.6694C88.8749 12.926 89.887 11.2803 91.9414 11.2803C92.8398 11.2803 93.5719 11.6463 94.071 12.0789C94.1376 12.1455 95.5684 11.48 95.5684 9.61655ZM117.966 6.88798C122.092 6.88798 123.823 9.51672 123.823 13.3434V21.396C123.823 23.093 122.957 23.6254 121.759 23.6254H121.26C119.996 23.6254 119.131 23.1263 119.131 21.396V14.0754C119.131 11.9458 118.199 10.8145 116.302 10.8145C114.971 10.8145 113.773 11.6463 113.108 12.811V21.396C113.108 23.093 112.243 23.6254 111.045 23.6254H110.545C109.314 23.6254 108.416 23.1263 108.416 21.396V14.1753C108.416 11.9458 107.484 10.8145 105.621 10.8145C104.296 10.8145 103.104 11.6379 102.436 12.7931V22.0364C102.436 23.1245 101.737 23.5282 100.727 23.6073C100.61 23.6196 100.488 23.6254 100.363 23.6254H99.8639C99.8168 23.6254 99.7714 23.6242 99.7278 23.6218C98.5798 23.6032 97.7598 23.2137 97.7598 22.0364V9.74987C97.7598 7.59559 99.2855 7.07478 100.679 7.07478C101.607 7.07478 102.436 7.35886 102.436 7.45355V9.54288C103.526 8.01619 105.056 6.88798 107.318 6.88798C110.013 6.88798 111.71 8.18571 112.509 10.2155C113.607 8.35209 115.271 6.88798 117.966 6.88798ZM136.759 13.8092C129.871 13.9091 126.344 15.5728 126.344 19.1998C126.344 21.9949 128.407 23.8584 131.801 23.8584C134.23 23.8584 136.293 22.8268 137.425 21.0632C137.491 21.4958 137.591 21.8618 137.691 22.1613C138.123 23.2594 139.022 23.7253 140.153 23.7253C141.052 23.7253 141.917 23.4258 141.917 23.1929V13.6096C141.917 9.25052 139.421 6.88798 134.263 6.88798C131.136 6.88798 129.039 7.65331 127.941 8.78467C127.276 9.4169 126.943 10.1822 126.943 10.9143C126.943 13.0772 129.938 12.8442 129.971 12.7777C130.537 11.5465 131.734 10.4152 133.964 10.4152C136.027 10.4152 137.192 11.4467 137.258 13.3434C137.292 13.4765 137.292 13.6429 137.292 13.8092H136.759ZM137.292 16.1718V17.3364C137.258 19.3995 135.594 20.8303 133.265 20.8303C131.701 20.8303 130.736 20.065 130.736 18.8338C130.736 17.0037 132.699 16.3049 136.393 16.1718H137.292ZM150.7 29.8812C149.336 29.8812 148.104 28.8164 148.204 28.5834L150.866 22.4608C150.134 22.3277 149.635 22.0948 149.369 21.396L149.167 20.9151L144.887 10.823C144.095 9.00564 145.195 8.04594 146.472 7.48949C147.323 7.11853 148.12 7.02585 148.155 7.10574L152.465 18.7291L155.592 9.45017C156.157 7.62003 157.156 7.05436 158.22 7.05436C159.518 7.05436 160.849 8.15244 160.749 8.38537L153.362 27.5852C152.663 29.3488 151.732 29.8812 150.7 29.8812ZM53.5954 21.3966C53.5954 23.1269 52.6969 23.626 51.4657 23.626H50.9666C49.7686 23.626 48.9035 23.0936 48.9035 21.3966V4.12674C48.9035 1.09869 50.4342 0.366629 51.8317 0.366629C52.7635 0.366629 53.5954 0.765933 53.5954 0.899035V21.3966ZM62.0444 21.3966C62.0444 23.1269 61.1459 23.626 59.9147 23.626H59.4156C58.2176 23.626 57.3524 23.0936 57.3524 21.3966V4.12674C57.3524 1.09869 58.8831 0.366629 60.2807 0.366629C61.2125 0.366629 62.0444 0.765933 62.0444 0.899035V21.3966Z" fill="#9566AC"/>
    </symbol>
    <symbol fill="none" xmlns="http://www.w3.org/2000/svg" viewBox="0 0 24 24" id="menu">
        <path d="M21 5H3V6.55556H21V5Z" fill="#9566AC"/>
        <path d="M21 17.4444H3V19H21V17.4444Z" fill="#9566AC"/>
        <path d="M21 11.2222H3V12.7778H21V11.2222Z" fill="#9566AC"/>
    </symbol>
    <symbol fill="none" xmlns="http://www.w3.org/2000/svg" viewBox="0 0 24 24" id="notification-button">
        <path d="M12 21.75C13.1 21.75 14 20.85 14 19.75H10C10 20.85 10.89 21.75 12 21.75ZM18 15.75V10.75C18 7.68 16.36 5.11 13.5 4.43V3.75C13.5 2.92 12.83 2.25 12 2.25C11.17 2.25 10.5 2.92 10.5 3.75V4.43C7.63 5.11 6 7.67 6 10.75V15.75L4 17.75V18.75H20V17.75L18 15.75Z" fill="#FFF7EC"/>
    </symbol>
    <symbol fill="none" xmlns="http://www.w3.org/2000/svg" viewBox="0 0 265 181" id="mullermay-logo-white">
        <path d="M107.604 18.161C107.565 18.1277 107.526 18.0944 107.488 18.0667C107.476 18.0556 107.415 18.0056 107.365 17.9668C107.304 17.9224 107.132 17.7892 107.137 17.7947C107.082 17.7503 107.021 17.7115 106.96 17.6671C105.954 16.9067 104.982 16.2074 104.054 15.5747C103.82 15.3971 103.587 15.225 103.354 15.0474C102.47 14.4757 101.581 13.9263 100.687 13.3879C98.4919 12.0392 97.0528 11.3066 97.0528 11.3066L97.1139 11.351C43.6346 -17.7208 -25.5689 11.7339 -40.0653 72.1809C-46.105 97.3343 -45.8716 123.181 -43.2379 148.773C-41.4433 166.212 -27.697 178.328 -9.83353 180.631C6.14636 182.696 22.4763 173.494 29.2161 158.619C32.5998 151.149 33.0221 143.19 33.0166 135.175C33.011 120.295 32.811 105.404 34.3112 90.5686C37.9283 54.7478 60.0035 29.4168 94.4691 21.5522C98.403 20.6531 102.381 20.1647 107.471 20.2868C107.504 20.2868 107.538 20.2757 107.571 20.2757C108.176 20.2757 108.782 20.2923 109.393 20.3034L112.277 22.1239C110.727 20.6697 109.143 19.3432 107.604 18.1555L107.604 18.161Z" fill="#FFF2E0"/>
        <path d="M262.88 86.7279C255.39 15.1917 176.608 -23.3043 116.422 15.2361C115.933 15.5469 115.466 15.83 115.011 16.0742C113.672 16.8068 112.41 17.6671 111.166 18.544C110.16 19.2544 109.154 19.9593 108.154 20.6642C95.9138 30.8987 86.5125 41.8547 80.9896 55.4416C68.1379 87.0498 68.4712 120.207 73.3996 152.908C76.7334 175.042 102.887 186.72 123.817 178.211C141.825 170.891 148.31 156.333 148.554 138.017C148.748 123.786 148.393 109.517 149.254 95.3251C151.754 54.3538 188.47 29.5056 226.609 42.765C241.672 48.0043 252.151 58.1723 257.963 72.9024C257.963 72.9024 248.323 58.5386 228.17 58.1889C224.609 58.0169 220.941 58.3832 217.18 59.3212C217.069 59.3434 216.963 59.36 216.857 59.3878L216.874 59.3989C215.674 59.7097 214.463 60.0538 213.24 60.4756C198.511 65.5928 189.537 76.2825 187.937 91.8896C186.065 110.15 186.165 128.543 187.887 146.814C189.721 166.262 205.362 180.276 224.859 180.881C243.767 181.469 260.524 168.36 263.214 149.323C266.147 128.532 265.058 107.541 262.88 86.7168L262.88 86.7279Z" fill="#FFF2E0"/>
    </symbol>
    <symbol fill="none" xmlns="http://www.w3.org/2000/svg" viewBox="0 0 24 24" id="slider-arrow-left">
        <path d="M12 20L13.41 18.59L7.83 13L20 13L20 11L7.83 11L13.41 5.41L12 4L4 12L12 20Z" fill="#FFF7EC"/>
    </symbol>
    <symbol fill="none" xmlns="http://www.w3.org/2000/svg" viewBox="0 0 24 24" id="slider-arrow-right">
        <path d="M12 4L10.59 5.41L16.17 11H4V13H16.17L10.59 18.59L12 20L20 12L12 4Z" fill="#FFF7EC"/>
    </symbol>
    <symbol fill="none" xmlns="http://www.w3.org/2000/svg" viewBox="0 0 688 401" id="mullermay-logo-form">
        <path d="M338.683 40.2353C338.597 40.1615 338.51 40.0877 338.424 40.0262C338.399 40.0016 338.264 39.891 338.153 39.8049C338.017 39.7065 337.635 39.4114 337.647 39.4237C337.524 39.3253 337.388 39.2393 337.252 39.1409C335.02 37.4563 332.862 35.907 330.803 34.5052C330.285 34.1117 329.767 33.7305 329.249 33.3371C327.289 32.0705 325.316 30.8532 323.33 29.6605C318.459 26.6725 315.266 25.0494 315.266 25.0494L315.401 25.1478C196.712 -39.26 43.1244 25.9962 10.9519 159.915C-2.45233 215.641 -1.93442 272.905 3.91065 329.603C7.89368 368.238 38.4015 395.08 78.0469 400.183C113.512 404.757 149.754 384.37 164.712 351.416C172.222 334.866 173.159 317.233 173.146 299.477C173.134 266.511 172.69 233.52 176.02 200.652C184.047 121.292 233.04 65.172 309.531 47.7483C318.262 45.7563 327.091 44.6742 338.387 44.9447C338.461 44.9447 338.535 44.9201 338.609 44.9201C339.953 44.9201 341.297 44.957 342.654 44.9816L349.054 49.0148C345.613 45.7932 342.099 42.8544 338.683 40.223L338.683 40.2353Z" fill="#FEEBD2"/>
        <path d="M683.295 192.143C666.673 33.6568 491.826 -51.63 358.253 33.7551C357.168 34.4437 356.132 35.0708 355.121 35.6119C352.149 37.235 349.349 39.1409 346.587 41.0837C344.355 42.6576 342.123 44.2192 339.904 45.7809C312.738 68.4551 291.873 92.7279 279.616 122.829C251.093 192.856 251.833 266.314 262.771 338.763C270.17 387.801 328.213 413.672 374.666 394.822C414.632 378.603 429.022 346.35 429.565 305.773C429.997 274.245 429.207 242.631 431.119 211.19C436.668 120.419 518.154 65.3688 602.796 94.7445C636.227 106.352 659.484 128.879 672.382 161.513C672.382 161.513 650.987 129.69 606.261 128.916C598.357 128.535 590.218 129.346 581.87 131.424C581.623 131.473 581.389 131.51 581.155 131.572L581.192 131.596C578.528 132.285 575.84 133.047 573.127 133.982C540.436 145.319 520.521 169.002 516.97 203.579C512.814 244.033 513.036 284.783 516.859 325.262C520.928 368.348 555.641 399.396 598.912 400.737C640.876 402.04 678.067 372.996 684.035 330.82C690.546 284.758 688.129 238.254 683.295 192.118L683.295 192.143Z" fill="#FEEBD2"/>
    </symbol> 
    <symbol fill="none" xmlns="http://www.w3.org/2000/svg" viewBox="0 0 688 401" id="mullermay-logo-form__warm-white">
        <path d="M338.683 40.2353C338.597 40.1615 338.51 40.0877 338.424 40.0262C338.399 40.0016 338.264 39.891 338.153 39.8049C338.017 39.7065 337.635 39.4114 337.647 39.4237C337.524 39.3253 337.388 39.2393 337.252 39.1409C335.02 37.4563 332.862 35.907 330.803 34.5052C330.285 34.1117 329.767 33.7305 329.249 33.3371C327.289 32.0705 325.316 30.8532 323.33 29.6605C318.459 26.6725 315.266 25.0494 315.266 25.0494L315.401 25.1478C196.712 -39.26 43.1244 25.9962 10.9519 159.915C-2.45233 215.641 -1.93442 272.905 3.91065 329.603C7.89368 368.238 38.4015 395.08 78.0469 400.183C113.512 404.757 149.754 384.37 164.712 351.416C172.222 334.866 173.159 317.233 173.146 299.477C173.134 266.511 172.69 233.52 176.02 200.652C184.047 121.292 233.04 65.172 309.531 47.7483C318.262 45.7563 327.091 44.6742 338.387 44.9447C338.461 44.9447 338.535 44.9201 338.609 44.9201C339.953 44.9201 341.297 44.957 342.654 44.9816L349.054 49.0148C345.613 45.7932 342.099 42.8544 338.683 40.223L338.683 40.2353Z" fill="#FFF2E0"/>
        <path d="M683.295 192.143C666.673 33.6568 491.826 -51.63 358.253 33.7551C357.168 34.4437 356.132 35.0708 355.121 35.6119C352.149 37.235 349.349 39.1409 346.587 41.0837C344.355 42.6576 342.123 44.2192 339.904 45.7809C312.738 68.4551 291.873 92.7279 279.616 122.829C251.093 192.856 251.833 266.314 262.771 338.763C270.17 387.801 328.213 413.672 374.666 394.822C414.632 378.603 429.022 346.35 429.565 305.773C429.997 274.245 429.207 242.631 431.119 211.19C436.668 120.419 518.154 65.3688 602.796 94.7445C636.227 106.352 659.484 128.879 672.382 161.513C672.382 161.513 650.987 129.69 606.261 128.916C598.357 128.535 590.218 129.346 581.87 131.424C581.623 131.473 581.389 131.51 581.155 131.572L581.192 131.596C578.528 132.285 575.84 133.047 573.127 133.982C540.436 145.319 520.521 169.002 516.97 203.579C512.814 244.033 513.036 284.783 516.859 325.262C520.928 368.348 555.641 399.396 598.912 400.737C640.876 402.04 678.067 372.996 684.035 330.82C690.546 284.758 688.129 238.254 683.295 192.118L683.295 192.143Z" fill="#FFF2E0"/>
    </symbol>
    <symbol fill="none" xmlns="http://www.w3.org/2000/svg" viewBox="0 0 72 72" id="review-logo">
        <g clip-path="url(#clip0_2789_17845)">
        <path d="M62.5265 0.947266C62.0033 0.947266 61.5791 1.37142 61.5791 1.89463C61.5791 2.41785 62.0033 2.842 62.5265 2.842C63.0497 2.842 63.4738 2.41785 63.4738 1.89463C63.4738 1.37142 63.0497 0.947266 62.5265 0.947266Z" fill="#EE974B"/>
        <path d="M36 0C16.1178 0 0 16.1178 0 36C0 55.8823 16.1178 72 36 72C55.8823 72 72 55.8823 72 36C72 16.1177 55.8823 0 36 0Z" fill="#FEEBD2"/>
        <path d="M68.2104 0C66.1175 0 64.4209 1.69661 64.4209 3.78947C64.4209 5.88234 66.1175 7.57895 68.2104 7.57895C70.3032 7.57895 71.9998 5.88234 71.9998 3.78947C71.9998 1.69661 70.3032 0 68.2104 0Z" fill="#EE974B"/>
        <path d="M1.89474 11.3684C0.848303 11.3684 0 12.2167 0 13.2631C0 14.3096 0.848303 15.1579 1.89474 15.1579C2.94117 15.1579 3.78947 14.3096 3.78947 13.2631C3.78947 12.2167 2.94117 11.3684 1.89474 11.3684Z" fill="#EE974B"/>
        <path d="M62.5262 59.6842C61.4798 59.6842 60.6315 60.5325 60.6315 61.5789C60.6315 62.6254 61.4798 63.4737 62.5262 63.4737C63.5726 63.4737 64.4209 62.6254 64.4209 61.5789C64.4209 60.5325 63.5726 59.6842 62.5262 59.6842ZM4.73674 58.7368C2.64387 58.7368 0.947266 60.4334 0.947266 62.5263C0.947266 64.6192 2.64387 66.3158 4.73674 66.3158C6.82961 66.3158 8.52621 64.6192 8.52621 62.5263C8.52621 60.4334 6.82961 58.7368 4.73674 58.7368Z" fill="#9566AC"/>
        <path d="M11.3684 65.3684C10.3219 65.3684 9.47363 66.2167 9.47363 67.2631C9.47363 68.3096 10.3219 69.1579 11.3684 69.1579C12.4148 69.1579 13.2631 68.3096 13.2631 67.2631C13.2631 66.2167 12.4148 65.3684 11.3684 65.3684Z" fill="#EE974B"/>
        <path d="M51.6313 60.6316C50.3232 60.6316 49.2629 61.692 49.2629 63.0001C49.2629 64.3081 50.3232 65.3685 51.6313 65.3685C52.9393 65.3685 53.9997 64.3081 53.9997 63.0001C53.9997 61.692 52.9393 60.6316 51.6313 60.6316ZM3.78917 33.158C3.26595 33.158 2.8418 33.5821 2.8418 34.1053C2.8418 34.6285 3.26595 35.0527 3.78917 35.0527C4.31238 35.0527 4.73653 34.6285 4.73653 34.1053C4.73653 33.5821 4.31238 33.158 3.78917 33.158Z" fill="white"/>
        <path d="M70.1056 17.0527C69.5824 17.0527 69.1582 17.4769 69.1582 18.0001C69.1582 18.5233 69.5824 18.9475 70.1056 18.9475C70.6288 18.9475 71.0529 18.5233 71.0529 18.0001C71.0529 17.4769 70.6288 17.0527 70.1056 17.0527Z" fill="#EE974B"/>
        <path d="M64.4211 49.2632C63.3747 49.2632 62.5264 50.1115 62.5264 51.1579C62.5264 52.2044 63.3747 53.0527 64.4211 53.0527C65.4675 53.0527 66.3158 52.2044 66.3158 51.1579C66.3158 50.1115 65.4675 49.2632 64.4211 49.2632Z" fill="white"/>
        <path d="M35.9996 12.9792C23.2854 12.9792 12.9785 23.2861 12.9785 36.0003C12.9785 48.7145 23.2854 59.0214 35.9996 59.0214C48.7137 59.0214 59.0206 48.7145 59.0206 36.0003C59.0206 23.2861 48.7137 12.9792 35.9996 12.9792Z" fill="#B899C8"/>
        <path d="M36.0006 59.6841C22.9269 59.6841 12.3164 49.0736 12.3164 35.9999C12.3164 22.9262 22.9269 12.3157 36.0006 12.3157C49.0743 12.3157 59.6848 22.9262 59.6848 35.9999C59.6848 49.0736 49.0743 59.6841 36.0006 59.6841ZM36.0006 13.7367C23.6848 13.7367 13.7375 23.6841 13.7375 35.9999C13.7375 48.3157 23.6848 58.263 36.0006 58.263C48.3164 58.263 58.2638 48.3157 58.2638 35.9999C58.2638 23.6841 48.3164 13.7367 36.0006 13.7367Z" fill="#9566AC"/>
        <path d="M35.9054 16.7686C25.2318 16.7686 16.5791 25.4212 16.5791 36.0949C16.5791 46.7685 25.2318 55.4212 35.9054 55.4212C46.579 55.4212 55.2317 46.7685 55.2317 36.0949C55.2317 25.4212 46.579 16.7686 35.9054 16.7686Z" fill="#B899C8"/>
        <path d="M54.3782 31.0736C54.1887 31.0736 53.9992 30.9788 53.9045 30.6946C53.8098 30.4104 53.715 30.1262 53.6203 29.842C53.2413 28.7999 52.7677 27.7578 52.1992 26.8104C52.1045 26.6209 52.1045 26.3367 52.3887 26.1472C52.5782 26.0525 52.8624 26.0525 53.0519 26.3367C53.6203 27.3788 54.094 28.4209 54.4729 29.463C54.5677 29.7472 54.6624 30.0314 54.7571 30.3157C54.8519 30.5999 54.6624 30.7893 54.4729 30.8841C54.4729 30.9788 54.4729 31.0736 54.3782 31.0736Z" fill="#9566AC"/>
        <path d="M36.0002 55.7999C25.1055 55.7999 16.2002 46.9894 16.2002 36.0947C16.2002 25.1999 25.1055 16.3894 36.0002 16.3894C41.6844 16.3894 47.0844 18.8526 50.7791 23.021C51.0634 23.3052 51.3476 23.6841 51.6318 23.9684C51.8212 24.1578 51.7265 24.442 51.537 24.6315C51.3476 24.821 51.0634 24.7262 50.8739 24.5368C50.5897 24.2526 50.4002 23.8736 50.116 23.5894C46.516 19.6105 41.4002 17.242 36.0002 17.242C25.5791 17.242 17.1476 25.6736 17.1476 35.9999C17.1476 46.421 25.5791 54.8526 36.0002 54.8526C46.4212 54.8526 54.8528 46.421 54.8528 36.0947C54.8528 35.1473 54.7581 34.1999 54.6634 33.2526C54.6634 32.9683 54.7581 32.7789 55.0423 32.6841C55.3265 32.6841 55.516 32.7789 55.6107 33.0631C55.8002 34.0105 55.8002 35.0526 55.8002 35.9999C55.8002 46.8947 46.8949 55.7999 36.0002 55.7999Z" fill="#9566AC"/>
        <path d="M36.4928 23.7879L40.0093 30.7035L40.1273 30.9356L40.3852 30.972L48.2171 32.0766L42.5601 37.4285L42.3645 37.6136L42.4114 37.8787L43.7501 45.4543L36.7201 41.8671L36.4928 41.7512L36.2656 41.8671L29.2355 45.4543L30.5742 37.8787L30.6211 37.6136L30.4255 37.4285L24.7685 32.0766L32.6005 30.972L32.8583 30.9356L32.9763 30.7035L36.4928 23.7879Z" fill="#FFF7EC" stroke="#9566AC"/>
    </g>
    <defs>
        <clipPath id="clip0_2789_17845">
        <rect width="72" height="72" fill="white"/>
        </clipPath>
    </defs>
    </symbol> 
    <symbol fill="none" xmlns="http://www.w3.org/2000/svg" viewBox="0 0 48 28" id="mullemay-logo-white">
        <path d="M338.683 40.2353C338.597 40.1615 338.51 40.0877 338.424 40.0262C338.399 40.0016 338.264 39.891 338.153 39.8049C338.017 39.7065 337.635 39.4114 337.647 39.4237C337.524 39.3253 337.388 39.2393 337.252 39.1409C335.02 37.4563 332.862 35.907 330.803 34.5052C330.285 34.1117 329.767 33.7305 329.249 33.3371C327.289 32.0705 325.316 30.8532 323.33 29.6605C318.459 26.6725 315.266 25.0494 315.266 25.0494L315.401 25.1478C196.712 -39.26 43.1244 25.9962 10.9519 159.915C-2.45233 215.641 -1.93442 272.905 3.91065 329.603C7.89368 368.238 38.4015 395.08 78.0469 400.183C113.512 404.757 149.754 384.37 164.712 351.416C172.222 334.866 173.159 317.233 173.146 299.477C173.134 266.511 172.69 233.52 176.02 200.652C184.047 121.292 233.04 65.172 309.531 47.7483C318.262 45.7563 327.091 44.6742 338.387 44.9447C338.461 44.9447 338.535 44.9201 338.609 44.9201C339.953 44.9201 341.297 44.957 342.654 44.9816L349.054 49.0148C345.613 45.7932 342.099 42.8544 338.683 40.223L338.683 40.2353Z" fill="#FFF7EC"/>
        <path d="M683.295 192.143C666.673 33.6568 491.826 -51.63 358.253 33.7551C357.168 34.4437 356.132 35.0708 355.121 35.6119C352.149 37.235 349.349 39.1409 346.587 41.0837C344.355 42.6576 342.123 44.2192 339.904 45.7809C312.738 68.4551 291.873 92.7279 279.616 122.829C251.093 192.856 251.833 266.314 262.771 338.763C270.17 387.801 328.213 413.672 374.666 394.822C414.632 378.603 429.022 346.35 429.565 305.773C429.997 274.245 429.207 242.631 431.119 211.19C436.668 120.419 518.154 65.3688 602.796 94.7445C636.227 106.352 659.484 128.879 672.382 161.513C672.382 161.513 650.987 129.69 606.261 128.916C598.357 128.535 590.218 129.346 581.87 131.424C581.623 131.473 581.389 131.51 581.155 131.572L581.192 131.596C578.528 132.285 575.84 133.047 573.127 133.982C540.436 145.319 520.521 169.002 516.97 203.579C512.814 244.033 513.036 284.783 516.859 325.262C520.928 368.348 555.641 399.396 598.912 400.737C640.876 402.04 678.067 372.996 684.035 330.82C690.546 284.758 688.129 238.254 683.295 192.118L683.295 192.143Z" fill="#FFF7EC"/>
    </symbol> 
    <symbol fill="none" xmlns="http://www.w3.org/2000/svg" viewBox="0 0 189 35" id="mullermay-logo-text-white">
        <path fill-rule="evenodd" clip-rule="evenodd" d="M37.6753 2.71748C37.6753 4.50325 38.7235 5.47378 40.3928 5.47378C42.101 5.47378 43.1104 4.46443 43.1104 2.71748C43.1104 0.970527 42.101 0 40.354 0C38.6847 0 37.6753 0.970527 37.6753 2.71748ZM45.4397 2.71748C45.4397 4.50325 46.4879 5.47378 48.1572 5.47378C49.8654 5.47378 50.8748 4.46443 50.8748 2.71748C50.8748 0.970527 49.8654 0 48.1184 0C46.4491 0 45.4397 0.970527 45.4397 2.71748ZM47.9869 25.7103V24.705C46.6717 26.559 44.7702 27.9124 41.9069 27.9124C36.9765 27.9124 34.9189 24.4573 34.9189 20.0705V10.9087C34.9189 8.92886 35.9283 8.2689 37.2871 8.2689H37.9082C39.3446 8.2689 40.354 8.89004 40.354 10.9087V19.2553C40.354 21.8175 41.674 23.3315 43.9256 23.3315C45.7487 23.3315 47.1631 22.3654 47.9869 20.9421V11.3761C47.9869 8.86277 49.7669 8.25515 51.3921 8.25515C52.4756 8.25515 53.443 8.58658 53.443 8.69705V25.7103C53.443 27.1465 52.3982 27.5608 50.9665 27.5608H50.3861C48.993 27.5608 47.9869 27.1189 47.9869 25.7103ZM31.1623 15.5673C31.1623 11.1028 29.1436 8.03598 24.3296 8.03598C21.185 8.03598 19.2439 9.74411 17.9628 11.9181C17.0311 9.55 15.0512 8.03598 11.9066 8.03598C9.27558 8.03598 7.49348 9.34469 6.22266 11.1181V8.90143C6.22266 8.79175 5.25528 8.46273 4.1718 8.46273C2.54659 8.46273 0.766602 9.06594 0.766602 11.5611V25.7914C0.766602 27.1898 1.77269 27.6285 3.16572 27.6285H3.74615C5.17789 27.6285 6.22266 27.2172 6.22266 25.7914V14.9065C7.00349 13.5686 8.38894 12.6169 9.92668 12.6169C12.1007 12.6169 13.1877 13.9368 13.1877 16.5378V24.962C13.1877 26.9807 14.2359 27.563 15.6723 27.563H16.2547C17.6522 27.563 18.6616 26.9419 18.6616 24.962V14.9461C19.4381 13.5874 20.8357 12.6169 22.3885 12.6169C24.6014 12.6169 25.6884 13.9368 25.6884 16.4213V24.962C25.6884 26.9807 26.6978 27.563 28.173 27.563H28.7553C30.1529 27.563 31.1623 26.9419 31.1623 24.962V15.5673ZM76.3377 18.0906C76.3377 12.3063 80.4529 8.03598 86.1597 8.03598C91.7889 8.03598 95.5934 11.9569 95.5934 17.5083V17.8577C95.5546 18.7894 95.2829 19.2941 94.2735 19.2941H81.1516L81.2681 19.9152C81.8504 22.3998 83.908 23.9915 86.7032 23.9915C89.5372 23.9915 91.1677 22.7492 92.0218 21.2352C92.0606 21.1575 94.7005 21.3904 94.7005 23.5644C94.7005 24.6126 93.9629 25.6996 92.6041 26.5148C91.2066 27.3689 89.1878 27.9512 86.5479 27.9512C80.3752 27.9512 76.3377 24.1079 76.3377 18.0906ZM90.5466 16.3049C90.3913 13.5486 88.7219 11.8016 86.1209 11.8016C83.5198 11.8016 81.5787 13.665 81.2293 16.3049H90.5466ZM112.163 11.2193C112.163 9.27825 110.843 8.03598 108.669 8.03598C106.482 8.03598 104.957 9.1945 104.156 11.1448V8.69661C104.156 8.58614 103.189 8.25471 102.105 8.25471C100.48 8.25471 98.6999 8.86233 98.6999 11.3757V25.7099C98.6999 27.0448 99.6035 27.5115 100.884 27.5567C100.965 27.5609 101.05 27.563 101.137 27.563H101.72C101.837 27.563 101.952 27.5586 102.064 27.5494C103.294 27.4756 104.156 27.0142 104.156 25.7099V18.2915C104.351 15.0845 105.532 13.1604 107.931 13.1604C108.979 13.1604 109.834 13.5874 110.416 14.0921C110.493 14.1697 112.163 13.3933 112.163 11.2193ZM138.293 8.03598C143.107 8.03598 145.126 11.1028 145.126 15.5673V24.962C145.126 26.9419 144.117 27.563 142.719 27.563H142.137C140.661 27.563 139.652 26.9807 139.652 24.962V16.4213C139.652 13.9368 138.565 12.6169 136.352 12.6169C134.799 12.6169 133.402 13.5874 132.625 14.9461V24.962C132.625 26.9419 131.616 27.563 130.218 27.563H129.636C128.2 27.563 127.151 26.9807 127.151 24.962V16.5378C127.151 13.9368 126.064 12.6169 123.89 12.6169C122.345 12.6169 120.954 13.578 120.175 14.9263V25.7094C120.175 26.9831 119.353 27.453 118.169 27.5431C118.036 27.5566 117.898 27.563 117.757 27.563H117.174C117.123 27.563 117.073 27.5618 117.025 27.5592C115.68 27.5397 114.719 27.0865 114.719 25.7094V11.3752C114.719 8.86189 116.499 8.25427 118.124 8.25427C119.207 8.25427 120.175 8.5857 120.175 8.69617V11.1342C121.446 9.35262 123.231 8.03598 125.87 8.03598C129.015 8.03598 130.995 9.55 131.927 11.9181C133.208 9.74411 135.149 8.03598 138.293 8.03598ZM160.219 16.1108C152.183 16.2272 148.067 18.1683 148.067 22.3998C148.067 25.6608 150.474 27.8348 154.434 27.8348C157.268 27.8348 159.675 26.6313 160.995 24.5738C161.073 25.0785 161.189 25.5055 161.306 25.8549C161.81 27.136 162.859 27.6795 164.179 27.6795C165.227 27.6795 166.236 27.3301 166.236 27.0583V15.8778C166.236 10.7923 163.324 8.03598 157.307 8.03598C153.658 8.03598 151.212 8.92886 149.931 10.2488C149.154 10.9864 148.766 11.8793 148.766 12.7333C148.766 15.2567 152.26 14.985 152.299 14.9073C152.959 13.4709 154.357 12.151 156.958 12.151C159.365 12.151 160.723 13.3545 160.801 15.5673C160.84 15.7226 160.84 15.9167 160.84 16.1108H160.219ZM160.84 18.8671V20.2258C160.801 22.6327 158.86 24.302 156.142 24.302C154.318 24.302 153.192 23.4091 153.192 21.9728C153.192 19.8376 155.482 19.0224 159.792 18.8671H160.84ZM176.483 34.8614C174.891 34.8614 173.455 33.6191 173.571 33.3474L176.677 26.2043C175.823 26.049 175.241 25.7772 174.93 24.962L174.876 24.833L174.851 24.7739L169.7 12.6271C168.776 10.5068 170.059 9.38719 171.549 8.738C172.542 8.30521 173.472 8.19709 173.512 8.29029L178.542 21.8528L182.19 11.0252C182.85 8.89004 184.014 8.23008 185.257 8.23008C186.771 8.23008 188.324 9.51118 188.207 9.78293L179.589 32.1827C178.773 34.2402 177.686 34.8614 176.483 34.8614ZM63.1925 24.963C63.1925 26.9817 62.1443 27.564 60.7079 27.564H60.1256C58.728 27.564 57.7186 26.9429 57.7186 24.963V4.81482C57.7186 1.28209 59.5044 0.428028 61.1349 0.428028C62.222 0.428028 63.1925 0.893883 63.1925 1.04917V24.963ZM73.0497 24.963C73.0497 26.9817 72.0015 27.564 70.565 27.564H69.9827C68.5851 27.564 67.5758 26.9429 67.5758 24.963V4.81482C67.5758 1.28209 69.3616 0.428028 70.9921 0.428028C72.0791 0.428028 73.0497 0.893883 73.0497 1.04917V24.963Z" fill="#FFF7EC"/>
    </symbol>
    <symbol fill="none" xmlns="http://www.w3.org/2000/svg" viewBox="0 0 32 32" id="instagram">
        <path d="M11.631 5.45605H20.451C23.811 5.45605 26.541 8.18605 26.541 11.5461V20.3661C26.541 21.9812 25.8994 23.5302 24.7573 24.6723C23.6152 25.8144 22.0662 26.4561 20.451 26.4561H11.631C8.27102 26.4561 5.54102 23.7261 5.54102 20.3661V11.5461C5.54102 9.93089 6.18264 8.38187 7.32474 7.23977C8.46683 6.09768 10.0158 5.45605 11.631 5.45605ZM11.421 7.55605C10.4185 7.55605 9.45704 7.9543 8.74815 8.66319C8.03926 9.37208 7.64102 10.3335 7.64102 11.3361V20.5761C7.64102 22.6656 9.33152 24.3561 11.421 24.3561H20.661C21.6635 24.3561 22.625 23.9578 23.3339 23.2489C24.0428 22.54 24.441 21.5786 24.441 20.5761V11.3361C24.441 9.24655 22.7505 7.55605 20.661 7.55605H11.421ZM21.5535 9.13105C21.9016 9.13105 22.2355 9.26934 22.4816 9.51548C22.7277 9.76162 22.866 10.0955 22.866 10.4436C22.866 10.7917 22.7277 11.1255 22.4816 11.3716C22.2355 11.6178 21.9016 11.7561 21.5535 11.7561C21.2054 11.7561 20.8716 11.6178 20.6254 11.3716C20.3793 11.1255 20.241 10.7917 20.241 10.4436C20.241 10.0955 20.3793 9.76162 20.6254 9.51548C20.8716 9.26934 21.2054 9.13105 21.5535 9.13105ZM16.041 10.7061C17.4334 10.7061 18.7688 11.2592 19.7533 12.2437C20.7379 13.2283 21.291 14.5637 21.291 15.9561C21.291 17.3484 20.7379 18.6838 19.7533 19.6684C18.7688 20.6529 17.4334 21.2061 16.041 21.2061C14.6486 21.2061 13.3133 20.6529 12.3287 19.6684C11.3441 18.6838 10.791 17.3484 10.791 15.9561C10.791 14.5637 11.3441 13.2283 12.3287 12.2437C13.3133 11.2592 14.6486 10.7061 16.041 10.7061ZM16.041 12.8061C15.2056 12.8061 14.4044 13.1379 13.8136 13.7287C13.2229 14.3194 12.891 15.1206 12.891 15.9561C12.891 16.7915 13.2229 17.5927 13.8136 18.1834C14.4044 18.7742 15.2056 19.1061 16.041 19.1061C16.8764 19.1061 17.6777 18.7742 18.2684 18.1834C18.8591 17.5927 19.191 16.7915 19.191 15.9561C19.191 15.1206 18.8591 14.3194 18.2684 13.7287C17.6777 13.1379 16.8764 12.8061 16.041 12.8061Z" fill="#EE974B"/>
    </symbol>
    <symbol fill="none" xmlns="http://www.w3.org/2000/svg" viewBox="0 0 32 32" id="facebook">
        <path d="M25.9868 15.9824C25.9868 10.1718 21.069 5.45605 15.0095 5.45605C8.95005 5.45605 4.03223 10.1718 4.03223 15.9824C4.03223 21.0771 7.80841 25.3192 12.814 26.2982V19.1403H10.6186V15.9824H12.814V13.3508C12.814 11.3192 14.5375 9.66658 16.6561 9.66658H19.4004V12.8245H17.205C16.6012 12.8245 16.1072 13.2982 16.1072 13.8771V15.9824H19.4004V19.1403H16.1072V26.4561C21.6507 25.9297 25.9868 21.4455 25.9868 15.9824Z" fill="#EE974B"/>
    </symbol>
    <symbol fill="none" xmlns="http://www.w3.org/2000/svg" viewBox="0 0 688 401" id="mullermay-background-purple">
        <path d="M338.683 40.2353C338.597 40.1615 338.51 40.0877 338.424 40.0262C338.399 40.0016 338.264 39.891 338.153 39.8049C338.017 39.7065 337.635 39.4114 337.647 39.4237C337.524 39.3253 337.388 39.2393 337.252 39.1409C335.02 37.4563 332.862 35.907 330.803 34.5052C330.285 34.1117 329.767 33.7305 329.249 33.3371C327.289 32.0705 325.316 30.8532 323.33 29.6605C318.459 26.6725 315.266 25.0494 315.266 25.0494L315.401 25.1478C196.712 -39.26 43.1244 25.9962 10.9519 159.915C-2.45233 215.641 -1.93442 272.905 3.91065 329.603C7.89368 368.238 38.4015 395.08 78.0469 400.183C113.512 404.757 149.754 384.37 164.712 351.416C172.222 334.866 173.159 317.233 173.146 299.477C173.134 266.511 172.69 233.52 176.02 200.652C184.047 121.292 233.04 65.172 309.531 47.7483C318.262 45.7563 327.091 44.6742 338.387 44.9447C338.461 44.9447 338.535 44.9201 338.609 44.9201C339.953 44.9201 341.297 44.957 342.654 44.9816L349.054 49.0148C345.613 45.7932 342.099 42.8544 338.683 40.223L338.683 40.2353Z" fill="#C49FD6"/>
        <path d="M683.295 192.143C666.673 33.6568 491.826 -51.63 358.253 33.7551C357.168 34.4437 356.132 35.0708 355.121 35.6119C352.149 37.235 349.349 39.1409 346.587 41.0837C344.355 42.6576 342.123 44.2192 339.904 45.7809C312.738 68.4551 291.873 92.7279 279.616 122.829C251.093 192.856 251.833 266.314 262.771 338.763C270.17 387.801 328.213 413.672 374.666 394.822C414.632 378.603 429.022 346.35 429.565 305.773C429.997 274.245 429.207 242.631 431.119 211.19C436.668 120.419 518.154 65.3688 602.796 94.7445C636.227 106.352 659.484 128.879 672.382 161.513C672.382 161.513 650.987 129.69 606.261 128.916C598.357 128.535 590.218 129.346 581.87 131.424C581.623 131.473 581.389 131.51 581.155 131.572L581.192 131.596C578.528 132.285 575.84 133.047 573.127 133.982C540.436 145.319 520.521 169.002 516.97 203.579C512.814 244.033 513.036 284.783 516.859 325.262C520.928 368.348 555.641 399.396 598.912 400.737C640.876 402.04 678.067 372.996 684.035 330.82C690.546 284.758 688.129 238.254 683.295 192.118L683.295 192.143Z" fill="#C49FD6"/>
    </symbol>
    <symbol fill="none" xmlns="http://www.w3.org/2000/svg" viewBox="0 0 24 24" id="close-button">
        <path d="M19 6.41L17.59 5L12 10.59L6.41 5L5 6.41L10.59 12L5 17.59L6.41 19L12 13.41L17.59 19L19 17.59L13.41 12L19 6.41Z" fill="#9566AC"/>
    </symbol>
    <symbol fill="none" xmlns="http://www.w3.org/2000/svg" viewBox="0 0 20 20" id="notification-close-button">
        <path d="M15.8337 5.34175L14.6587 4.16675L10.0003 8.82508L5.34199 4.16675L4.16699 5.34175L8.82533 10.0001L4.16699 14.6584L5.34199 15.8334L10.0003 11.1751L14.6587 15.8334L15.8337 14.6584L11.1753 10.0001L15.8337 5.34175Z" fill="#FFF7EC"/>
    </symbol>
    <symbol fill="none" xmlns="http://www.w3.org/2000/svg" viewBox="0 0 24 24" id="drop-down-button">
        <path d="M12 8.29504L6 14.295L7.41 15.705L12 11.125L16.59 15.705L18 14.295L12 8.29504Z" fill="#2E2D2C"/>
    </symbol>
    <symbol fill="none" xmlns="http://www.w3.org/2000/svg" viewBox="0 0 24 24" id="time">
        <path d="M11.99 2C6.47 2 2 6.48 2 12C2 17.52 6.47 22 11.99 22C17.52 22 22 17.52 22 12C22 6.48 17.52 2 11.99 2ZM12 20C7.58 20 4 16.42 4 12C4 7.58 7.58 4 12 4C16.42 4 20 7.58 20 12C20 16.42 16.42 20 12 20Z" fill="#9566AC"/>
        <path d="M12.5 7H11V13L16.25 16.15L17 14.92L12.5 12.25V7Z" fill="#9566AC"/>
    </symbol>
    <symbol fill="none" xmlns="http://www.w3.org/2000/svg" viewBox="0 0 25 15" id="mullermay-logo-small">
        <path d="M12.0142 2.04291C12.0111 2.04028 12.0081 2.03766 12.005 2.03547C12.0041 2.0346 11.9993 2.03066 11.9954 2.0276C11.9906 2.0241 11.977 2.01361 11.9774 2.01405C11.9731 2.01055 11.9683 2.00749 11.9634 2.00399C11.8843 1.94408 11.8077 1.88898 11.7347 1.83913C11.7163 1.82514 11.6979 1.81159 11.6796 1.79759C11.61 1.75255 11.54 1.70926 11.4696 1.66685C11.2968 1.56059 11.1835 1.50287 11.1835 1.50287L11.1883 1.50636C6.97801 -0.784103 1.52976 1.53654 0.388499 6.29894C-0.0869919 8.28069 -0.0686197 10.3171 0.138724 12.3334C0.280015 13.7073 1.36223 14.6619 2.76858 14.8434C4.02664 15.006 5.31226 14.281 5.84287 13.1091C6.10926 12.5206 6.14251 11.8935 6.14207 11.2621C6.14163 10.0897 6.12589 8.9165 6.24399 7.74765C6.52876 4.92545 8.26669 2.92971 10.9801 2.31008C11.2898 2.23924 11.603 2.20076 12.0037 2.21038C12.0063 2.21038 12.0089 2.20951 12.0116 2.20951C12.0592 2.20951 12.1069 2.21082 12.155 2.2117L12.3821 2.35512C12.26 2.24056 12.1354 2.13605 12.0142 2.04247V2.04291Z" fill="#9566AC"/>
        <path d="M24.2387 7.44505C23.6491 1.80896 17.4467 -1.22401 12.7084 1.81246C12.6699 1.83695 12.6332 1.85925 12.5973 1.87849C12.4919 1.93621 12.3926 2.00399 12.2946 2.07308C12.2154 2.12905 12.1362 2.18458 12.0575 2.24012C11.0938 3.04646 10.3537 3.90965 9.91888 4.98011C8.90709 7.47041 8.93334 10.0827 9.32134 12.6592C9.5838 14.403 11.6428 15.3231 13.2906 14.6527C14.7083 14.076 15.2188 12.929 15.2381 11.4859C15.2534 10.3648 15.2254 9.24052 15.2932 8.1224C15.49 4.8944 18.3806 2.9367 21.3832 3.98136C22.569 4.39416 23.394 5.19525 23.8516 6.35579C23.8516 6.35579 23.0926 5.22411 21.5061 5.19656C21.2257 5.18301 20.937 5.21187 20.6408 5.28577C20.6321 5.28752 20.6238 5.28883 20.6155 5.29102L20.6168 5.29189C20.5223 5.31638 20.4269 5.34349 20.3307 5.37672C19.171 5.77989 18.4646 6.62209 18.3386 7.85172C18.1912 9.29037 18.1991 10.7395 18.3347 12.179C18.479 13.7113 19.7104 14.8154 21.2454 14.8631C22.7339 14.9094 24.0533 13.8766 24.265 12.3767C24.4959 10.7386 24.4102 9.08485 24.2387 7.44418V7.44505Z" fill="#9566AC"/>
    </symbol>
    <symbol fill="none" xmlns="http://www.w3.org/2000/svg" viewBox="0 0 98 19" id="mullermay-logo-text-small">
       <path fill-rule="evenodd" clip-rule="evenodd" d="M19.4129 2.01463C19.4129 2.93632 19.9539 3.43724 20.8155 3.43724C21.6972 3.43724 22.2181 2.91628 22.2181 2.01463C22.2181 1.11298 21.6972 0.612061 20.7955 0.612061C19.9339 0.612061 19.4129 1.11298 19.4129 2.01463ZM23.4204 2.01463C23.4204 2.93632 23.9614 3.43724 24.823 3.43724C25.7046 3.43724 26.2256 2.91628 26.2256 2.01463C26.2256 1.11298 25.7046 0.612061 24.8029 0.612061C23.9413 0.612061 23.4204 1.11298 23.4204 2.01463ZM24.7354 13.8823V13.3626C24.0566 14.3197 23.075 15.0185 21.597 15.0185C19.0523 15.0185 17.9903 13.2352 17.9903 10.971V6.24238C17.9903 5.22051 18.5113 4.87988 19.2126 4.87988H19.5332C20.2745 4.87988 20.7955 5.20047 20.7955 6.24238V10.5503C20.7955 11.8727 21.4768 12.6541 22.6389 12.6541C23.5801 12.6541 24.3102 12.1552 24.7354 11.4204V6.48396C24.7354 5.18676 25.6541 4.87315 26.4929 4.87315C27.0521 4.87315 27.5514 5.04421 27.5514 5.10123V13.8823C27.5514 14.6235 27.0122 14.8374 26.2732 14.8374H25.9736C25.2546 14.8374 24.7354 14.6093 24.7354 13.8823ZM16.0514 8.64678C16.0514 6.34256 15.0095 4.75966 12.5248 4.75966C10.9018 4.75966 9.89998 5.64128 9.23875 6.76333C8.75786 5.54109 7.73597 4.75966 6.11296 4.75966C4.75501 4.75966 3.83522 5.43513 3.17931 6.35042V5.20643C3.17931 5.14982 2.68002 4.98 2.1208 4.98C1.28199 4.98 0.363281 5.29134 0.363281 6.57914V13.9238C0.363281 14.6456 0.88255 14.872 1.60154 14.872H1.90112C2.64007 14.872 3.17931 14.6597 3.17931 13.9238V8.30574C3.58232 7.61519 4.29739 7.12399 5.09107 7.12399C6.21315 7.12399 6.77419 7.80524 6.77419 9.1477V13.4957C6.77419 14.5376 7.31519 14.8381 8.05656 14.8381H8.35712C9.07846 14.8381 9.59942 14.5175 9.59942 13.4957V8.3262C10.0002 7.62491 10.7215 7.12399 11.523 7.12399C12.6651 7.12399 13.2261 7.80524 13.2261 9.08759V13.4957C13.2261 14.5376 13.7471 14.8381 14.5085 14.8381H14.8091C15.5304 14.8381 16.0514 14.5175 16.0514 13.4957V8.64678ZM39.3677 9.94917C39.3677 6.9637 41.4917 4.75966 44.4371 4.75966C47.3425 4.75966 49.3062 6.78337 49.3062 9.64862V9.82895C49.2861 10.3098 49.1459 10.5703 48.6249 10.5703H41.8523L41.9125 10.8909C42.213 12.1732 43.275 12.9948 44.7177 12.9948C46.1804 12.9948 47.0219 12.3536 47.4627 11.5721C47.4828 11.5321 48.8453 11.6523 48.8453 12.7743C48.8453 13.3153 48.4646 13.8764 47.7633 14.2971C47.042 14.7379 46 15.0385 44.6375 15.0385C41.4516 15.0385 39.3677 13.0549 39.3677 9.94917ZM46.7013 9.02748C46.6212 7.60487 45.7596 6.70322 44.4171 6.70322C43.0746 6.70322 42.0728 7.66498 41.8924 9.02748H46.7013ZM57.8581 6.40267C57.8581 5.40084 57.1769 4.75966 56.0548 4.75966C54.9264 4.75966 54.1396 5.35734 53.7258 6.36352V5.10022C53.7258 5.0432 53.2265 4.87214 52.6673 4.87214C51.8285 4.87214 50.9098 5.18575 50.9098 6.48295V13.8813C50.9098 14.5623 51.3654 14.8055 52.0141 14.8335C52.063 14.8366 52.1142 14.8381 52.1676 14.8381H52.4681C52.5345 14.8381 52.5992 14.8354 52.662 14.8297C53.2886 14.7886 53.7258 14.5487 53.7258 13.8813V10.0482C53.8274 8.39575 54.4368 7.40451 55.6741 7.40451C56.2151 7.40451 56.6559 7.62491 56.9564 7.88539C56.9965 7.92546 57.8581 7.52473 57.8581 6.40267ZM71.3448 4.75966C73.8294 4.75966 74.8714 6.34256 74.8714 8.64678V13.4957C74.8714 14.5175 74.3504 14.8381 73.6291 14.8381H73.3285C72.5671 14.8381 72.0461 14.5376 72.0461 13.4957V9.08759C72.0461 7.80524 71.4851 7.12399 70.343 7.12399C69.5415 7.12399 68.8202 7.62491 68.4194 8.3262V13.4957C68.4194 14.5175 67.8985 14.8381 67.1771 14.8381H66.8766C66.1352 14.8381 65.5942 14.5376 65.5942 13.4957V9.1477C65.5942 7.80524 65.0331 7.12399 63.9111 7.12399C63.1135 7.12399 62.3954 7.61998 61.9934 8.31583V13.8813C61.9934 14.5362 61.5725 14.7794 60.9649 14.8271C60.8941 14.8346 60.8207 14.8381 60.7452 14.8381H60.4446C60.4163 14.8381 60.389 14.8374 60.3628 14.8359C59.6714 14.8248 59.1774 14.5903 59.1774 13.8813V6.48295C59.1774 5.18575 60.0961 4.87214 60.9349 4.87214C61.4941 4.87214 61.9934 5.0432 61.9934 5.10022V6.35861C62.6497 5.43916 63.571 4.75966 64.933 4.75966C66.556 4.75966 67.5779 5.54109 68.0587 6.76333C68.72 5.64128 69.7218 4.75966 71.3448 4.75966ZM82.6611 8.9273C78.5134 8.98741 76.3895 9.98924 76.3895 12.1732C76.3895 13.8563 77.6318 14.9784 79.6756 14.9784C81.1383 14.9784 82.3806 14.3572 83.0619 13.2953C83.1019 13.5558 83.1621 13.7762 83.2222 13.9565C83.4827 14.6177 84.0237 14.8982 84.7049 14.8982C85.2459 14.8982 85.7669 14.7179 85.7669 14.5777V8.80708C85.7669 6.18227 84.2641 4.75966 81.1583 4.75966C79.2749 4.75966 78.0125 5.22051 77.3513 5.90175C76.9505 6.28245 76.7502 6.7433 76.7502 7.1841C76.7502 8.48649 78.5535 8.34623 78.5736 8.30616C78.9142 7.5648 79.6355 6.88355 80.978 6.88355C82.2203 6.88355 82.9216 7.50469 82.9617 8.64678C82.9817 8.72693 82.9817 8.82711 82.9817 8.9273H82.6611ZM82.9817 10.3499V11.0512C82.9617 12.2935 81.9598 13.155 80.5572 13.155C79.6155 13.155 79.0344 12.6942 79.0344 11.9528C79.0344 10.8508 80.2166 10.4301 82.4407 10.3499H82.9817ZM91.0556 18.605C90.2341 18.605 89.4927 17.9639 89.5528 17.8236L91.1558 14.1368C90.715 14.0567 90.4144 13.9164 90.2541 13.4957L90.1702 13.2957L87.555 7.12913C87.0782 6.03481 87.7402 5.45693 88.5092 5.12186C89.0219 4.89848 89.5017 4.84268 89.5227 4.89078L92.1184 11.8904L94.0011 6.30249C94.3417 5.20047 94.9428 4.85984 95.584 4.85984C96.3654 4.85984 97.1669 5.52106 97.1068 5.66131L92.6586 17.2225C92.2378 18.2844 91.6768 18.605 91.0556 18.605ZM32.5833 13.496C32.5833 14.5379 32.0423 14.8385 31.3009 14.8385H31.0004C30.279 14.8385 29.7581 14.5179 29.7581 13.496V3.09698C29.7581 1.27363 30.6798 0.832827 31.5213 0.832827C32.0824 0.832827 32.5833 1.07327 32.5833 1.15341V13.496ZM37.6709 13.496C37.6709 14.5379 37.1299 14.8385 36.3885 14.8385H36.0879C35.3666 14.8385 34.8456 14.5179 34.8456 13.496V3.09698C34.8456 1.27363 35.7673 0.832827 36.6089 0.832827C37.1699 0.832827 37.6709 1.07327 37.6709 1.15341V13.496Z" fill="#9566AC"/>
    </symbol>
</svg>
